<mxfile host="Electron" modified="2023-11-17T19:50:50.924Z" agent="Mozilla/5.0 (Windows NT 10.0; Win64; x64) AppleWebKit/537.36 (KHTML, like Gecko) draw.io/21.7.5 Chrome/114.0.5735.289 Electron/25.8.1 Safari/537.36" etag="j8uEkNA7vhfcfdhp6nu4" version="21.7.5" type="device">
  <diagram id="R2lEEEUBdFMjLlhIrx00" name="Page-1">
    <mxGraphModel dx="1104" dy="516" grid="1" gridSize="10" guides="1" tooltips="1" connect="1" arrows="1" fold="1" page="1" pageScale="1" pageWidth="850" pageHeight="1100" math="0" shadow="0" extFonts="Permanent Marker^https://fonts.googleapis.com/css?family=Permanent+Marker">
      <root>
        <mxCell id="0" />
        <mxCell id="1" parent="0" />
        <mxCell id="vSA5Otxi7DdKt8M3S7L1-1" value="Navegador de Internet" style="shape=table;startSize=30;container=1;collapsible=0;childLayout=tableLayout;fixedRows=1;rowLines=0;fontStyle=0;strokeColor=#028090;fontSize=16;sketch=1;curveFitting=1;jiggle=2;labelBackgroundColor=none;fillColor=#F45B69;fontColor=#E4FDE1;hachureGap=4;fontFamily=Architects Daughter;fontSource=https%3A%2F%2Ffonts.googleapis.com%2Fcss%3Ffamily%3DArchitects%2BDaughter;" vertex="1" parent="1">
          <mxGeometry x="540" y="100" width="290" height="130" as="geometry" />
        </mxCell>
        <mxCell id="vSA5Otxi7DdKt8M3S7L1-11" value="" style="shape=tableRow;horizontal=0;startSize=0;swimlaneHead=0;swimlaneBody=0;top=0;left=0;bottom=0;right=0;collapsible=0;dropTarget=0;fillColor=none;points=[[0,0.5],[1,0.5]];portConstraint=eastwest;strokeColor=#028090;fontSize=16;sketch=1;curveFitting=1;jiggle=2;labelBackgroundColor=none;fontColor=#E4FDE1;hachureGap=4;fontFamily=Architects Daughter;fontSource=https%3A%2F%2Ffonts.googleapis.com%2Fcss%3Ffamily%3DArchitects%2BDaughter;" vertex="1" parent="vSA5Otxi7DdKt8M3S7L1-1">
          <mxGeometry y="30" width="290" height="30" as="geometry" />
        </mxCell>
        <mxCell id="vSA5Otxi7DdKt8M3S7L1-12" value="+" style="shape=partialRectangle;html=1;whiteSpace=wrap;connectable=0;fillColor=none;top=0;left=0;bottom=0;right=0;overflow=hidden;strokeColor=#028090;fontSize=16;sketch=1;curveFitting=1;jiggle=2;labelBackgroundColor=none;fontColor=#E4FDE1;hachureGap=4;fontFamily=Architects Daughter;fontSource=https%3A%2F%2Ffonts.googleapis.com%2Fcss%3Ffamily%3DArchitects%2BDaughter;" vertex="1" parent="vSA5Otxi7DdKt8M3S7L1-11">
          <mxGeometry width="40" height="30" as="geometry">
            <mxRectangle width="40" height="30" as="alternateBounds" />
          </mxGeometry>
        </mxCell>
        <mxCell id="vSA5Otxi7DdKt8M3S7L1-13" value="exibirPagina():void" style="shape=partialRectangle;html=1;whiteSpace=wrap;connectable=0;fillColor=none;top=0;left=0;bottom=0;right=0;align=left;spacingLeft=6;overflow=hidden;strokeColor=#028090;fontSize=16;sketch=1;curveFitting=1;jiggle=2;labelBackgroundColor=none;fontColor=#E4FDE1;hachureGap=4;fontFamily=Architects Daughter;fontSource=https%3A%2F%2Ffonts.googleapis.com%2Fcss%3Ffamily%3DArchitects%2BDaughter;" vertex="1" parent="vSA5Otxi7DdKt8M3S7L1-11">
          <mxGeometry x="40" width="250" height="30" as="geometry">
            <mxRectangle width="250" height="30" as="alternateBounds" />
          </mxGeometry>
        </mxCell>
        <mxCell id="vSA5Otxi7DdKt8M3S7L1-14" value="" style="shape=tableRow;horizontal=0;startSize=0;swimlaneHead=0;swimlaneBody=0;top=0;left=0;bottom=0;right=0;collapsible=0;dropTarget=0;fillColor=none;points=[[0,0.5],[1,0.5]];portConstraint=eastwest;strokeColor=#028090;fontSize=16;sketch=1;curveFitting=1;jiggle=2;labelBackgroundColor=none;fontColor=#E4FDE1;hachureGap=4;fontFamily=Architects Daughter;fontSource=https%3A%2F%2Ffonts.googleapis.com%2Fcss%3Ffamily%3DArchitects%2BDaughter;" vertex="1" parent="vSA5Otxi7DdKt8M3S7L1-1">
          <mxGeometry y="60" width="290" height="30" as="geometry" />
        </mxCell>
        <mxCell id="vSA5Otxi7DdKt8M3S7L1-15" value="+" style="shape=partialRectangle;html=1;whiteSpace=wrap;connectable=0;fillColor=none;top=0;left=0;bottom=0;right=0;overflow=hidden;strokeColor=#028090;fontSize=16;sketch=1;curveFitting=1;jiggle=2;labelBackgroundColor=none;fontColor=#E4FDE1;hachureGap=4;fontFamily=Architects Daughter;fontSource=https%3A%2F%2Ffonts.googleapis.com%2Fcss%3Ffamily%3DArchitects%2BDaughter;" vertex="1" parent="vSA5Otxi7DdKt8M3S7L1-14">
          <mxGeometry width="40" height="30" as="geometry">
            <mxRectangle width="40" height="30" as="alternateBounds" />
          </mxGeometry>
        </mxCell>
        <mxCell id="vSA5Otxi7DdKt8M3S7L1-16" value="adicionarNovaAba():void" style="shape=partialRectangle;html=1;whiteSpace=wrap;connectable=0;fillColor=none;top=0;left=0;bottom=0;right=0;align=left;spacingLeft=6;overflow=hidden;strokeColor=#028090;fontSize=16;sketch=1;curveFitting=1;jiggle=2;labelBackgroundColor=none;fontColor=#E4FDE1;hachureGap=4;fontFamily=Architects Daughter;fontSource=https%3A%2F%2Ffonts.googleapis.com%2Fcss%3Ffamily%3DArchitects%2BDaughter;" vertex="1" parent="vSA5Otxi7DdKt8M3S7L1-14">
          <mxGeometry x="40" width="250" height="30" as="geometry">
            <mxRectangle width="250" height="30" as="alternateBounds" />
          </mxGeometry>
        </mxCell>
        <mxCell id="vSA5Otxi7DdKt8M3S7L1-17" value="" style="shape=tableRow;horizontal=0;startSize=0;swimlaneHead=0;swimlaneBody=0;top=0;left=0;bottom=0;right=0;collapsible=0;dropTarget=0;fillColor=none;points=[[0,0.5],[1,0.5]];portConstraint=eastwest;strokeColor=#028090;fontSize=16;sketch=1;curveFitting=1;jiggle=2;labelBackgroundColor=none;fontColor=#E4FDE1;hachureGap=4;fontFamily=Architects Daughter;fontSource=https%3A%2F%2Ffonts.googleapis.com%2Fcss%3Ffamily%3DArchitects%2BDaughter;" vertex="1" parent="vSA5Otxi7DdKt8M3S7L1-1">
          <mxGeometry y="90" width="290" height="40" as="geometry" />
        </mxCell>
        <mxCell id="vSA5Otxi7DdKt8M3S7L1-18" value="+" style="shape=partialRectangle;html=1;whiteSpace=wrap;connectable=0;fillColor=none;top=0;left=0;bottom=0;right=0;overflow=hidden;strokeColor=#028090;fontSize=16;sketch=1;curveFitting=1;jiggle=2;labelBackgroundColor=none;fontColor=#E4FDE1;hachureGap=4;fontFamily=Architects Daughter;fontSource=https%3A%2F%2Ffonts.googleapis.com%2Fcss%3Ffamily%3DArchitects%2BDaughter;" vertex="1" parent="vSA5Otxi7DdKt8M3S7L1-17">
          <mxGeometry width="40" height="40" as="geometry">
            <mxRectangle width="40" height="40" as="alternateBounds" />
          </mxGeometry>
        </mxCell>
        <mxCell id="vSA5Otxi7DdKt8M3S7L1-19" value="AtualizarPagina():void" style="shape=partialRectangle;html=1;whiteSpace=wrap;connectable=0;fillColor=none;top=0;left=0;bottom=0;right=0;align=left;spacingLeft=6;overflow=hidden;strokeColor=#028090;fontSize=16;sketch=1;curveFitting=1;jiggle=2;labelBackgroundColor=none;fontColor=#E4FDE1;hachureGap=4;fontFamily=Architects Daughter;fontSource=https%3A%2F%2Ffonts.googleapis.com%2Fcss%3Ffamily%3DArchitects%2BDaughter;" vertex="1" parent="vSA5Otxi7DdKt8M3S7L1-17">
          <mxGeometry x="40" width="250" height="40" as="geometry">
            <mxRectangle width="250" height="40" as="alternateBounds" />
          </mxGeometry>
        </mxCell>
        <mxCell id="vSA5Otxi7DdKt8M3S7L1-20" value="Aparelho de telefone" style="shape=table;startSize=30;container=1;collapsible=0;childLayout=tableLayout;fixedRows=1;rowLines=0;fontStyle=0;strokeColor=#028090;fontSize=16;sketch=1;curveFitting=1;jiggle=2;labelBackgroundColor=none;fillColor=#F45B69;fontColor=#E4FDE1;hachureGap=4;fontFamily=Architects Daughter;fontSource=https%3A%2F%2Ffonts.googleapis.com%2Fcss%3Ffamily%3DArchitects%2BDaughter;" vertex="1" parent="1">
          <mxGeometry x="20" y="100" width="230" height="130" as="geometry" />
        </mxCell>
        <mxCell id="vSA5Otxi7DdKt8M3S7L1-21" value="" style="shape=tableRow;horizontal=0;startSize=0;swimlaneHead=0;swimlaneBody=0;top=0;left=0;bottom=0;right=0;collapsible=0;dropTarget=0;fillColor=none;points=[[0,0.5],[1,0.5]];portConstraint=eastwest;strokeColor=#028090;fontSize=16;sketch=1;curveFitting=1;jiggle=2;labelBackgroundColor=none;fontColor=#E4FDE1;hachureGap=4;fontFamily=Architects Daughter;fontSource=https%3A%2F%2Ffonts.googleapis.com%2Fcss%3Ffamily%3DArchitects%2BDaughter;" vertex="1" parent="vSA5Otxi7DdKt8M3S7L1-20">
          <mxGeometry y="30" width="230" height="30" as="geometry" />
        </mxCell>
        <mxCell id="vSA5Otxi7DdKt8M3S7L1-22" value="+" style="shape=partialRectangle;html=1;whiteSpace=wrap;connectable=0;fillColor=none;top=0;left=0;bottom=0;right=0;overflow=hidden;strokeColor=#028090;fontSize=16;sketch=1;curveFitting=1;jiggle=2;labelBackgroundColor=none;fontColor=#E4FDE1;hachureGap=4;fontFamily=Architects Daughter;fontSource=https%3A%2F%2Ffonts.googleapis.com%2Fcss%3Ffamily%3DArchitects%2BDaughter;" vertex="1" parent="vSA5Otxi7DdKt8M3S7L1-21">
          <mxGeometry width="40" height="30" as="geometry">
            <mxRectangle width="40" height="30" as="alternateBounds" />
          </mxGeometry>
        </mxCell>
        <mxCell id="vSA5Otxi7DdKt8M3S7L1-23" value="ligar():void" style="shape=partialRectangle;html=1;whiteSpace=wrap;connectable=0;fillColor=none;top=0;left=0;bottom=0;right=0;align=left;spacingLeft=6;overflow=hidden;strokeColor=#028090;fontSize=16;sketch=1;curveFitting=1;jiggle=2;labelBackgroundColor=none;fontColor=#E4FDE1;hachureGap=4;fontFamily=Architects Daughter;fontSource=https%3A%2F%2Ffonts.googleapis.com%2Fcss%3Ffamily%3DArchitects%2BDaughter;" vertex="1" parent="vSA5Otxi7DdKt8M3S7L1-21">
          <mxGeometry x="40" width="190" height="30" as="geometry">
            <mxRectangle width="190" height="30" as="alternateBounds" />
          </mxGeometry>
        </mxCell>
        <mxCell id="vSA5Otxi7DdKt8M3S7L1-24" value="" style="shape=tableRow;horizontal=0;startSize=0;swimlaneHead=0;swimlaneBody=0;top=0;left=0;bottom=0;right=0;collapsible=0;dropTarget=0;fillColor=none;points=[[0,0.5],[1,0.5]];portConstraint=eastwest;strokeColor=#028090;fontSize=16;sketch=1;curveFitting=1;jiggle=2;labelBackgroundColor=none;fontColor=#E4FDE1;hachureGap=4;fontFamily=Architects Daughter;fontSource=https%3A%2F%2Ffonts.googleapis.com%2Fcss%3Ffamily%3DArchitects%2BDaughter;" vertex="1" parent="vSA5Otxi7DdKt8M3S7L1-20">
          <mxGeometry y="60" width="230" height="30" as="geometry" />
        </mxCell>
        <mxCell id="vSA5Otxi7DdKt8M3S7L1-25" value="+" style="shape=partialRectangle;html=1;whiteSpace=wrap;connectable=0;fillColor=none;top=0;left=0;bottom=0;right=0;overflow=hidden;strokeColor=#028090;fontSize=16;sketch=1;curveFitting=1;jiggle=2;labelBackgroundColor=none;fontColor=#E4FDE1;hachureGap=4;fontFamily=Architects Daughter;fontSource=https%3A%2F%2Ffonts.googleapis.com%2Fcss%3Ffamily%3DArchitects%2BDaughter;" vertex="1" parent="vSA5Otxi7DdKt8M3S7L1-24">
          <mxGeometry width="40" height="30" as="geometry">
            <mxRectangle width="40" height="30" as="alternateBounds" />
          </mxGeometry>
        </mxCell>
        <mxCell id="vSA5Otxi7DdKt8M3S7L1-26" value="atender():void" style="shape=partialRectangle;html=1;whiteSpace=wrap;connectable=0;fillColor=none;top=0;left=0;bottom=0;right=0;align=left;spacingLeft=6;overflow=hidden;strokeColor=#028090;fontSize=16;sketch=1;curveFitting=1;jiggle=2;labelBackgroundColor=none;fontColor=#E4FDE1;hachureGap=4;fontFamily=Architects Daughter;fontSource=https%3A%2F%2Ffonts.googleapis.com%2Fcss%3Ffamily%3DArchitects%2BDaughter;" vertex="1" parent="vSA5Otxi7DdKt8M3S7L1-24">
          <mxGeometry x="40" width="190" height="30" as="geometry">
            <mxRectangle width="190" height="30" as="alternateBounds" />
          </mxGeometry>
        </mxCell>
        <mxCell id="vSA5Otxi7DdKt8M3S7L1-27" value="" style="shape=tableRow;horizontal=0;startSize=0;swimlaneHead=0;swimlaneBody=0;top=0;left=0;bottom=0;right=0;collapsible=0;dropTarget=0;fillColor=none;points=[[0,0.5],[1,0.5]];portConstraint=eastwest;strokeColor=#028090;fontSize=16;sketch=1;curveFitting=1;jiggle=2;labelBackgroundColor=none;fontColor=#E4FDE1;hachureGap=4;fontFamily=Architects Daughter;fontSource=https%3A%2F%2Ffonts.googleapis.com%2Fcss%3Ffamily%3DArchitects%2BDaughter;" vertex="1" parent="vSA5Otxi7DdKt8M3S7L1-20">
          <mxGeometry y="90" width="230" height="40" as="geometry" />
        </mxCell>
        <mxCell id="vSA5Otxi7DdKt8M3S7L1-28" value="+" style="shape=partialRectangle;html=1;whiteSpace=wrap;connectable=0;fillColor=none;top=0;left=0;bottom=0;right=0;overflow=hidden;strokeColor=#028090;fontSize=16;sketch=1;curveFitting=1;jiggle=2;labelBackgroundColor=none;fontColor=#E4FDE1;hachureGap=4;fontFamily=Architects Daughter;fontSource=https%3A%2F%2Ffonts.googleapis.com%2Fcss%3Ffamily%3DArchitects%2BDaughter;" vertex="1" parent="vSA5Otxi7DdKt8M3S7L1-27">
          <mxGeometry width="40" height="40" as="geometry">
            <mxRectangle width="40" height="40" as="alternateBounds" />
          </mxGeometry>
        </mxCell>
        <mxCell id="vSA5Otxi7DdKt8M3S7L1-29" value="iniciarCorreioVoz():void" style="shape=partialRectangle;html=1;whiteSpace=wrap;connectable=0;fillColor=none;top=0;left=0;bottom=0;right=0;align=left;spacingLeft=6;overflow=hidden;strokeColor=#028090;fontSize=16;sketch=1;curveFitting=1;jiggle=2;labelBackgroundColor=none;fontColor=#E4FDE1;hachureGap=4;fontFamily=Architects Daughter;fontSource=https%3A%2F%2Ffonts.googleapis.com%2Fcss%3Ffamily%3DArchitects%2BDaughter;" vertex="1" parent="vSA5Otxi7DdKt8M3S7L1-27">
          <mxGeometry x="40" width="190" height="40" as="geometry">
            <mxRectangle width="190" height="40" as="alternateBounds" />
          </mxGeometry>
        </mxCell>
        <mxCell id="vSA5Otxi7DdKt8M3S7L1-30" value="Reprodutor de Música" style="shape=table;startSize=30;container=1;collapsible=0;childLayout=tableLayout;fixedRows=1;rowLines=0;fontStyle=0;strokeColor=#028090;fontSize=16;sketch=1;curveFitting=1;jiggle=2;labelBackgroundColor=none;fillColor=#F45B69;fontColor=#E4FDE1;hachureGap=4;fontFamily=Architects Daughter;fontSource=https%3A%2F%2Ffonts.googleapis.com%2Fcss%3Ffamily%3DArchitects%2BDaughter;" vertex="1" parent="1">
          <mxGeometry x="290" y="100" width="230" height="130" as="geometry" />
        </mxCell>
        <mxCell id="vSA5Otxi7DdKt8M3S7L1-31" value="" style="shape=tableRow;horizontal=0;startSize=0;swimlaneHead=0;swimlaneBody=0;top=0;left=0;bottom=0;right=0;collapsible=0;dropTarget=0;fillColor=none;points=[[0,0.5],[1,0.5]];portConstraint=eastwest;strokeColor=#028090;fontSize=16;sketch=1;curveFitting=1;jiggle=2;labelBackgroundColor=none;fontColor=#E4FDE1;hachureGap=4;fontFamily=Architects Daughter;fontSource=https%3A%2F%2Ffonts.googleapis.com%2Fcss%3Ffamily%3DArchitects%2BDaughter;" vertex="1" parent="vSA5Otxi7DdKt8M3S7L1-30">
          <mxGeometry y="30" width="230" height="30" as="geometry" />
        </mxCell>
        <mxCell id="vSA5Otxi7DdKt8M3S7L1-32" value="+" style="shape=partialRectangle;html=1;whiteSpace=wrap;connectable=0;fillColor=none;top=0;left=0;bottom=0;right=0;overflow=hidden;strokeColor=#028090;fontSize=16;sketch=1;curveFitting=1;jiggle=2;labelBackgroundColor=none;fontColor=#E4FDE1;hachureGap=4;fontFamily=Architects Daughter;fontSource=https%3A%2F%2Ffonts.googleapis.com%2Fcss%3Ffamily%3DArchitects%2BDaughter;" vertex="1" parent="vSA5Otxi7DdKt8M3S7L1-31">
          <mxGeometry width="40" height="30" as="geometry">
            <mxRectangle width="40" height="30" as="alternateBounds" />
          </mxGeometry>
        </mxCell>
        <mxCell id="vSA5Otxi7DdKt8M3S7L1-33" value="tocar():void" style="shape=partialRectangle;html=1;whiteSpace=wrap;connectable=0;fillColor=none;top=0;left=0;bottom=0;right=0;align=left;spacingLeft=6;overflow=hidden;strokeColor=#028090;fontSize=16;sketch=1;curveFitting=1;jiggle=2;labelBackgroundColor=none;fontColor=#E4FDE1;hachureGap=4;fontFamily=Architects Daughter;fontSource=https%3A%2F%2Ffonts.googleapis.com%2Fcss%3Ffamily%3DArchitects%2BDaughter;" vertex="1" parent="vSA5Otxi7DdKt8M3S7L1-31">
          <mxGeometry x="40" width="190" height="30" as="geometry">
            <mxRectangle width="190" height="30" as="alternateBounds" />
          </mxGeometry>
        </mxCell>
        <mxCell id="vSA5Otxi7DdKt8M3S7L1-34" value="" style="shape=tableRow;horizontal=0;startSize=0;swimlaneHead=0;swimlaneBody=0;top=0;left=0;bottom=0;right=0;collapsible=0;dropTarget=0;fillColor=none;points=[[0,0.5],[1,0.5]];portConstraint=eastwest;strokeColor=#028090;fontSize=16;sketch=1;curveFitting=1;jiggle=2;labelBackgroundColor=none;fontColor=#E4FDE1;hachureGap=4;fontFamily=Architects Daughter;fontSource=https%3A%2F%2Ffonts.googleapis.com%2Fcss%3Ffamily%3DArchitects%2BDaughter;" vertex="1" parent="vSA5Otxi7DdKt8M3S7L1-30">
          <mxGeometry y="60" width="230" height="30" as="geometry" />
        </mxCell>
        <mxCell id="vSA5Otxi7DdKt8M3S7L1-35" value="+" style="shape=partialRectangle;html=1;whiteSpace=wrap;connectable=0;fillColor=none;top=0;left=0;bottom=0;right=0;overflow=hidden;strokeColor=#028090;fontSize=16;sketch=1;curveFitting=1;jiggle=2;labelBackgroundColor=none;fontColor=#E4FDE1;hachureGap=4;fontFamily=Architects Daughter;fontSource=https%3A%2F%2Ffonts.googleapis.com%2Fcss%3Ffamily%3DArchitects%2BDaughter;" vertex="1" parent="vSA5Otxi7DdKt8M3S7L1-34">
          <mxGeometry width="40" height="30" as="geometry">
            <mxRectangle width="40" height="30" as="alternateBounds" />
          </mxGeometry>
        </mxCell>
        <mxCell id="vSA5Otxi7DdKt8M3S7L1-36" value="pausar():void" style="shape=partialRectangle;html=1;whiteSpace=wrap;connectable=0;fillColor=none;top=0;left=0;bottom=0;right=0;align=left;spacingLeft=6;overflow=hidden;strokeColor=#028090;fontSize=16;sketch=1;curveFitting=1;jiggle=2;labelBackgroundColor=none;fontColor=#E4FDE1;hachureGap=4;fontFamily=Architects Daughter;fontSource=https%3A%2F%2Ffonts.googleapis.com%2Fcss%3Ffamily%3DArchitects%2BDaughter;" vertex="1" parent="vSA5Otxi7DdKt8M3S7L1-34">
          <mxGeometry x="40" width="190" height="30" as="geometry">
            <mxRectangle width="190" height="30" as="alternateBounds" />
          </mxGeometry>
        </mxCell>
        <mxCell id="vSA5Otxi7DdKt8M3S7L1-37" value="" style="shape=tableRow;horizontal=0;startSize=0;swimlaneHead=0;swimlaneBody=0;top=0;left=0;bottom=0;right=0;collapsible=0;dropTarget=0;fillColor=none;points=[[0,0.5],[1,0.5]];portConstraint=eastwest;strokeColor=#028090;fontSize=16;sketch=1;curveFitting=1;jiggle=2;labelBackgroundColor=none;fontColor=#E4FDE1;hachureGap=4;fontFamily=Architects Daughter;fontSource=https%3A%2F%2Ffonts.googleapis.com%2Fcss%3Ffamily%3DArchitects%2BDaughter;" vertex="1" parent="vSA5Otxi7DdKt8M3S7L1-30">
          <mxGeometry y="90" width="230" height="40" as="geometry" />
        </mxCell>
        <mxCell id="vSA5Otxi7DdKt8M3S7L1-38" value="+" style="shape=partialRectangle;html=1;whiteSpace=wrap;connectable=0;fillColor=none;top=0;left=0;bottom=0;right=0;overflow=hidden;strokeColor=#028090;fontSize=16;sketch=1;curveFitting=1;jiggle=2;labelBackgroundColor=none;fontColor=#E4FDE1;hachureGap=4;fontFamily=Architects Daughter;fontSource=https%3A%2F%2Ffonts.googleapis.com%2Fcss%3Ffamily%3DArchitects%2BDaughter;" vertex="1" parent="vSA5Otxi7DdKt8M3S7L1-37">
          <mxGeometry width="40" height="40" as="geometry">
            <mxRectangle width="40" height="40" as="alternateBounds" />
          </mxGeometry>
        </mxCell>
        <mxCell id="vSA5Otxi7DdKt8M3S7L1-39" value="selecionarMusica():void" style="shape=partialRectangle;html=1;whiteSpace=wrap;connectable=0;fillColor=none;top=0;left=0;bottom=0;right=0;align=left;spacingLeft=6;overflow=hidden;strokeColor=#028090;fontSize=16;sketch=1;curveFitting=1;jiggle=2;labelBackgroundColor=none;fontColor=#E4FDE1;hachureGap=4;fontFamily=Architects Daughter;fontSource=https%3A%2F%2Ffonts.googleapis.com%2Fcss%3Ffamily%3DArchitects%2BDaughter;" vertex="1" parent="vSA5Otxi7DdKt8M3S7L1-37">
          <mxGeometry x="40" width="190" height="40" as="geometry">
            <mxRectangle width="190" height="40" as="alternateBounds" />
          </mxGeometry>
        </mxCell>
        <mxCell id="vSA5Otxi7DdKt8M3S7L1-41" style="edgeStyle=orthogonalEdgeStyle;rounded=0;sketch=1;hachureGap=4;jiggle=2;curveFitting=1;orthogonalLoop=1;jettySize=auto;html=1;fontFamily=Architects Daughter;fontSource=https%3A%2F%2Ffonts.googleapis.com%2Fcss%3Ffamily%3DArchitects%2BDaughter;fontSize=16;" edge="1" parent="1" source="vSA5Otxi7DdKt8M3S7L1-40">
          <mxGeometry relative="1" as="geometry">
            <mxPoint x="84" y="230" as="targetPoint" />
          </mxGeometry>
        </mxCell>
        <mxCell id="vSA5Otxi7DdKt8M3S7L1-40" value="Telefone" style="rounded=0;whiteSpace=wrap;html=1;sketch=1;hachureGap=4;jiggle=2;curveFitting=1;fontFamily=Architects Daughter;fontSource=https%3A%2F%2Ffonts.googleapis.com%2Fcss%3Ffamily%3DArchitects%2BDaughter;fontSize=20;" vertex="1" parent="1">
          <mxGeometry x="24" y="320" width="120" height="60" as="geometry" />
        </mxCell>
        <mxCell id="vSA5Otxi7DdKt8M3S7L1-43" style="edgeStyle=orthogonalEdgeStyle;rounded=0;sketch=1;hachureGap=4;jiggle=2;curveFitting=1;orthogonalLoop=1;jettySize=auto;html=1;fontFamily=Architects Daughter;fontSource=https%3A%2F%2Ffonts.googleapis.com%2Fcss%3Ffamily%3DArchitects%2BDaughter;fontSize=16;" edge="1" parent="1" source="vSA5Otxi7DdKt8M3S7L1-42" target="vSA5Otxi7DdKt8M3S7L1-30">
          <mxGeometry relative="1" as="geometry">
            <Array as="points">
              <mxPoint x="350" y="240" />
              <mxPoint x="350" y="240" />
            </Array>
          </mxGeometry>
        </mxCell>
        <mxCell id="vSA5Otxi7DdKt8M3S7L1-42" value="Ipod" style="rounded=0;whiteSpace=wrap;html=1;sketch=1;hachureGap=4;jiggle=2;curveFitting=1;fontFamily=Architects Daughter;fontSource=https%3A%2F%2Ffonts.googleapis.com%2Fcss%3Ffamily%3DArchitects%2BDaughter;fontSize=20;" vertex="1" parent="1">
          <mxGeometry x="290" y="320" width="120" height="60" as="geometry" />
        </mxCell>
        <mxCell id="vSA5Otxi7DdKt8M3S7L1-46" style="edgeStyle=orthogonalEdgeStyle;rounded=0;sketch=1;hachureGap=4;jiggle=2;curveFitting=1;orthogonalLoop=1;jettySize=auto;html=1;fontFamily=Architects Daughter;fontSource=https%3A%2F%2Ffonts.googleapis.com%2Fcss%3Ffamily%3DArchitects%2BDaughter;fontSize=16;" edge="1" parent="1" source="vSA5Otxi7DdKt8M3S7L1-44" target="vSA5Otxi7DdKt8M3S7L1-1">
          <mxGeometry relative="1" as="geometry">
            <Array as="points">
              <mxPoint x="755" y="250" />
              <mxPoint x="755" y="250" />
            </Array>
          </mxGeometry>
        </mxCell>
        <mxCell id="vSA5Otxi7DdKt8M3S7L1-44" value="App navegador de Internt" style="rounded=0;whiteSpace=wrap;html=1;sketch=1;hachureGap=4;jiggle=2;curveFitting=1;fontFamily=Architects Daughter;fontSource=https%3A%2F%2Ffonts.googleapis.com%2Fcss%3Ffamily%3DArchitects%2BDaughter;fontSize=20;" vertex="1" parent="1">
          <mxGeometry x="680" y="320" width="150" height="60" as="geometry" />
        </mxCell>
        <mxCell id="vSA5Otxi7DdKt8M3S7L1-48" style="edgeStyle=orthogonalEdgeStyle;rounded=0;sketch=1;hachureGap=4;jiggle=2;curveFitting=1;orthogonalLoop=1;jettySize=auto;html=1;fontFamily=Architects Daughter;fontSource=https%3A%2F%2Ffonts.googleapis.com%2Fcss%3Ffamily%3DArchitects%2BDaughter;fontSize=16;" edge="1" parent="1" source="vSA5Otxi7DdKt8M3S7L1-47" target="vSA5Otxi7DdKt8M3S7L1-20">
          <mxGeometry relative="1" as="geometry">
            <Array as="points">
              <mxPoint x="200" y="500" />
            </Array>
          </mxGeometry>
        </mxCell>
        <mxCell id="vSA5Otxi7DdKt8M3S7L1-49" style="edgeStyle=orthogonalEdgeStyle;rounded=0;sketch=1;hachureGap=4;jiggle=2;curveFitting=1;orthogonalLoop=1;jettySize=auto;html=1;fontFamily=Architects Daughter;fontSource=https%3A%2F%2Ffonts.googleapis.com%2Fcss%3Ffamily%3DArchitects%2BDaughter;fontSize=16;" edge="1" parent="1" source="vSA5Otxi7DdKt8M3S7L1-47" target="vSA5Otxi7DdKt8M3S7L1-30">
          <mxGeometry relative="1" as="geometry">
            <Array as="points">
              <mxPoint x="370" y="420" />
              <mxPoint x="480" y="420" />
            </Array>
          </mxGeometry>
        </mxCell>
        <mxCell id="vSA5Otxi7DdKt8M3S7L1-50" style="edgeStyle=orthogonalEdgeStyle;rounded=0;sketch=1;hachureGap=4;jiggle=2;curveFitting=1;orthogonalLoop=1;jettySize=auto;html=1;fontFamily=Architects Daughter;fontSource=https%3A%2F%2Ffonts.googleapis.com%2Fcss%3Ffamily%3DArchitects%2BDaughter;fontSize=16;" edge="1" parent="1" source="vSA5Otxi7DdKt8M3S7L1-47" target="vSA5Otxi7DdKt8M3S7L1-1">
          <mxGeometry relative="1" as="geometry">
            <Array as="points">
              <mxPoint x="620" y="500" />
            </Array>
          </mxGeometry>
        </mxCell>
        <mxCell id="vSA5Otxi7DdKt8M3S7L1-47" value="Iphone" style="rounded=0;whiteSpace=wrap;html=1;sketch=1;hachureGap=4;jiggle=2;curveFitting=1;fontFamily=Architects Daughter;fontSource=https%3A%2F%2Ffonts.googleapis.com%2Fcss%3Ffamily%3DArchitects%2BDaughter;fontSize=20;" vertex="1" parent="1">
          <mxGeometry x="310" y="470" width="120" height="60" as="geometry" />
        </mxCell>
      </root>
    </mxGraphModel>
  </diagram>
</mxfile>
